<svg width="888" height="831" viewBox="0 0 888 831" fill="none" xmlns="http://www.w3.org/2000/svg">
<rect width="888" height="831" fill="white"/>
<path d="M509.5 188H261.5C184.456 188 122 250.456 122 327.5V575.5C122 652.544 184.456 715 261.5 715H509.5C586.544 715 649 652.544 649 575.5V327.5C649 250.456 586.544 188 509.5 188Z" fill="black"/>
<rect x="186" y="351" width="140" height="150" rx="20" fill="#21DA5F"/>
<rect x="446" y="351" width="140" height="150" rx="20" fill="#21DA5F"/>
<path d="M732.471 71H667.529C647.355 71 631 87.3548 631 107.529V172.471C631 192.645 647.355 209 667.529 209H732.471C752.645 209 769 192.645 769 172.471V107.529C769 87.3548 752.645 71 732.471 71Z" fill="black"/>
</svg>
