<?xml version="1.0" encoding="UTF-8"?>
<!DOCTYPE svg PUBLIC "-//W3C//DTD SVG 1.1//EN" "http://www.w3.org/Graphics/SVG/1.1/DTD/svg11.dtd">
<svg xmlns="http://www.w3.org/2000/svg" version="1.1" width="888px" height="831px" style="shape-rendering:geometricPrecision; text-rendering:geometricPrecision; image-rendering:optimizeQuality; fill-rule:evenodd; clip-rule:evenodd" xmlns:xlink="http://www.w3.org/1999/xlink">
<g><path style="opacity:1" fill="#000000" d="M 768.5,173.5 C 766.75,188.792 758.75,199.626 744.5,206C 745.056,206.383 745.389,206.883 745.5,207.5C 743.518,207.995 741.518,208.495 739.5,209C 712.833,209.667 686.167,209.667 659.5,209C 643.667,205.167 633.833,195.333 630,179.5C 629.333,152.833 629.333,126.167 630,99.5C 633.833,83.6667 643.667,73.8333 659.5,70C 686.167,69.3333 712.833,69.3333 739.5,70C 753.723,73.2227 763.223,81.7227 768,95.5C 768.5,121.498 768.667,147.498 768.5,173.5 Z"/></g>
<g><path style="opacity:1" fill="#000000" d="M 587.5,691.5 C 576.349,696.906 565.016,702.073 553.5,707C 554.056,707.383 554.389,707.883 554.5,708.5C 546.964,710.801 539.297,712.634 531.5,714C 433.833,714.667 336.167,714.667 238.5,714C 185.87,703.931 149.37,674.098 129,624.5C 125.074,613.462 122.407,602.129 121,590.5C 120.333,497.5 120.333,404.5 121,311.5C 127.498,264.977 150.664,229.477 190.5,205C 207.876,194.989 226.543,188.989 246.5,187C 338.833,186.333 431.167,186.333 523.5,187C 577.517,194.739 616.017,223.239 639,272.5C 644.215,285.359 647.548,298.692 649,312.5C 649.667,405.167 649.667,497.833 649,590.5C 643.455,633.489 622.955,667.156 587.5,691.5 Z"/></g>
<g><path style="opacity:0.267" fill="#353535" d="M 768.5,173.5 C 768.022,189.653 760.356,200.986 745.5,207.5C 745.389,206.883 745.056,206.383 744.5,206C 758.75,199.626 766.75,188.792 768.5,173.5 Z"/></g>
<g><path style="opacity:1" fill="#21d95f" d="M 199.5,350.5 C 236.835,350.333 274.168,350.5 311.5,351C 318.428,353.594 322.928,358.427 325,365.5C 325.667,405.5 325.667,445.5 325,485.5C 322.602,493.9 317.102,498.733 308.5,500C 272.167,500.667 235.833,500.667 199.5,500C 192.572,497.406 188.072,492.573 186,485.5C 185.333,445.5 185.333,405.5 186,365.5C 188.263,358.407 192.763,353.407 199.5,350.5 Z"/></g>
<g><path style="opacity:1" fill="#21d95f" d="M 459.5,350.5 C 496.502,350.333 533.502,350.5 570.5,351C 578,353.167 582.833,358 585,365.5C 585.667,405.5 585.667,445.5 585,485.5C 582.732,493.435 577.565,498.268 569.5,500C 533.167,500.667 496.833,500.667 460.5,500C 453,497.833 448.167,493 446,485.5C 445.333,445.5 445.333,405.5 446,365.5C 448.263,358.407 452.763,353.407 459.5,350.5 Z"/></g>
<g><path style="opacity:0.584" fill="#242424" d="M 587.5,691.5 C 577.256,698.457 566.256,704.123 554.5,708.5C 554.389,707.883 554.056,707.383 553.5,707C 565.016,702.073 576.349,696.906 587.5,691.5 Z"/></g>
</svg>
