<svg width="449" height="207" viewBox="0 0 449 207" fill="none" xmlns="http://www.w3.org/2000/svg">
<rect width="449" height="207" fill="white"/>
<path d="M184.471 29H167.529C162.266 29 158 33.2665 158 38.5294V55.4706C158 60.7335 162.266 65 167.529 65H184.471C189.734 65 194 60.7335 194 55.4706V38.5294C194 33.2665 189.734 29 184.471 29Z" fill="black"/>
<path d="M134.529 54H87.4706C72.8513 54 61 65.8513 61 80.4706V127.529C61 142.149 72.8513 154 87.4706 154H134.529C149.149 154 161 142.149 161 127.529V80.4706C161 65.8513 149.149 54 134.529 54Z" fill="black"/>
<rect x="70" y="86" width="32" height="32" rx="5" fill="#21DA5F"/>
<rect x="120" y="86" width="32" height="32" rx="5" fill="#21DA5F"/>
<path d="M198.37 88.4444H200.741V90.8148H198.37V88.4444ZM200.741 88.4444H203.111V90.8148H200.741V88.4444ZM203.111 88.4444H205.481V90.8148H203.111V88.4444ZM205.481 88.4444H207.852V90.8148H205.481V88.4444ZM207.852 88.4444H210.222V90.8148H207.852V88.4444ZM210.222 88.4444H212.593V90.8148H210.222V88.4444ZM212.593 88.4444H214.963V90.8148H212.593V88.4444ZM214.963 88.4444H217.333V90.8148H214.963V88.4444ZM214.963 90.8148H217.333V93.1852H214.963V90.8148ZM217.333 90.8148H219.704V93.1852H217.333V90.8148ZM212.593 90.8148H214.963V93.1852H212.593V90.8148ZM210.222 90.8148H212.593V93.1852H210.222V90.8148ZM207.852 90.8148H210.222V93.1852H207.852V90.8148ZM205.481 90.8148H207.852V93.1852H205.481V90.8148ZM203.111 90.8148H205.481V93.1852H203.111V90.8148ZM200.741 90.8148H203.111V93.1852H200.741V90.8148ZM198.37 90.8148H200.741V93.1852H198.37V90.8148ZM198.37 93.1852H200.741V95.5556H198.37V93.1852ZM200.741 93.1852H203.111V95.5556H200.741V93.1852ZM203.111 93.1852H205.481V95.5556H203.111V93.1852ZM205.481 93.1852H207.852V95.5556H205.481V93.1852ZM210.222 93.1852H212.593V95.5556H210.222V93.1852ZM212.593 93.1852H214.963V95.5556H212.593V93.1852ZM214.963 93.1852H217.333V95.5556H214.963V93.1852ZM217.333 93.1852H219.704V95.5556H217.333V93.1852ZM219.704 93.1852H222.074V95.5556H219.704V93.1852ZM207.852 93.1852H210.222V95.5556H207.852V93.1852ZM212.593 95.5556H214.963V97.9259H212.593V95.5556ZM214.963 95.5556H217.333V97.9259H214.963V95.5556ZM219.704 95.5556H222.074V97.9259H219.704V95.5556ZM217.333 95.5556H219.704V97.9259H217.333V95.5556ZM217.333 97.9259H219.704V100.296H217.333V97.9259ZM217.333 100.296H219.704V102.667H217.333V100.296ZM219.704 100.296H222.074V102.667H219.704V100.296ZM219.704 102.667H222.074V105.037H219.704V102.667ZM219.704 97.9259H222.074V100.296H219.704V97.9259ZM214.963 100.296H217.333V102.667H214.963V100.296ZM214.963 97.9259H217.333V100.296H214.963V97.9259ZM212.593 100.296H214.963V102.667H212.593V100.296ZM214.963 102.667H217.333V105.037H214.963V102.667ZM217.333 102.667H219.704V105.037H217.333V102.667ZM217.333 105.037H219.704V107.407H217.333V105.037ZM217.333 107.407H219.704V109.778H217.333V107.407ZM219.704 107.407H222.074V109.778H219.704V107.407ZM219.704 109.778H222.074V112.148H219.704V109.778ZM219.704 112.148H222.074V114.519H219.704V112.148ZM219.704 114.519H222.074V116.889H219.704V114.519ZM219.704 116.889H222.074V119.259H219.704V116.889ZM217.333 116.889H219.704V119.259H217.333V116.889ZM217.333 119.259H219.704V121.63H217.333V119.259ZM214.963 119.259H217.333V121.63H214.963V119.259ZM214.963 116.889H217.333V119.259H214.963V116.889ZM212.593 116.889H214.963V119.259H212.593V116.889ZM212.593 114.519H214.963V116.889H212.593V114.519ZM214.963 114.519H217.333V116.889H214.963V114.519ZM217.333 114.519H219.704V116.889H217.333V114.519ZM217.333 112.148H219.704V114.519H217.333V112.148ZM217.333 109.778H219.704V112.148H217.333V109.778ZM214.963 109.778H217.333V112.148H214.963V109.778ZM214.963 112.148H217.333V114.519H214.963V112.148ZM212.593 109.778H214.963V112.148H212.593V109.778ZM212.593 107.407H214.963V109.778H212.593V107.407ZM214.963 107.407H217.333V109.778H214.963V107.407ZM214.963 105.037H217.333V107.407H214.963V105.037ZM212.593 105.037H214.963V107.407H212.593V105.037ZM212.593 102.667H214.963V105.037H212.593V102.667ZM210.222 107.407H212.593V109.778H210.222V107.407ZM207.852 107.407H210.222V109.778H207.852V107.407ZM205.481 107.407H207.852V109.778H205.481V107.407ZM205.481 105.037H207.852V107.407H205.481V105.037ZM207.852 105.037H210.222V107.407H207.852V105.037ZM207.852 102.667H210.222V105.037H207.852V102.667ZM210.222 102.667H212.593V105.037H210.222V102.667ZM205.481 102.667H207.852V105.037H205.481V102.667ZM210.222 105.037H212.593V107.407H210.222V105.037ZM200.741 95.5556H203.111V97.9259H200.741V95.5556ZM203.111 95.5556H205.481V97.9259H203.111V95.5556ZM203.111 97.9259H205.481V100.296H203.111V97.9259ZM203.111 100.296H205.481V102.667H203.111V100.296ZM203.111 102.667H205.481V105.037H203.111V102.667ZM200.741 102.667H203.111V105.037H200.741V102.667ZM198.37 102.667H200.741V105.037H198.37V102.667ZM198.37 100.296H200.741V102.667H198.37V100.296ZM198.37 97.9259H200.741V100.296H198.37V97.9259ZM198.37 95.5556H200.741V97.9259H198.37V95.5556ZM200.741 100.296H203.111V102.667H200.741V100.296ZM200.741 105.037H203.111V107.407H200.741V105.037ZM200.741 97.9259H203.111V100.296H200.741V97.9259ZM198.37 105.037H200.741V107.407H198.37V105.037ZM198.37 107.407H200.741V109.778H198.37V107.407ZM200.741 107.407H203.111V109.778H200.741V107.407ZM203.111 105.037H205.481V107.407H203.111V105.037ZM203.111 107.407H205.481V109.778H203.111V107.407ZM203.111 109.778H205.481V112.148H203.111V109.778ZM203.111 112.148H205.481V114.519H203.111V112.148ZM203.111 114.519H205.481V116.889H203.111V114.519ZM203.111 116.889H205.481V119.259H203.111V116.889ZM205.481 116.889H207.852V119.259H205.481V116.889ZM207.852 116.889H210.222V119.259H207.852V116.889ZM210.222 116.889H212.593V119.259H210.222V116.889ZM212.593 119.259H214.963V121.63H212.593V119.259ZM214.963 121.63H217.333V124H214.963V121.63ZM212.593 121.63H214.963V124H212.593V121.63ZM210.222 121.63H212.593V124H210.222V121.63ZM207.852 121.63H210.222V124H207.852V121.63ZM205.481 121.63H207.852V124H205.481V121.63ZM203.111 121.63H205.481V124H203.111V121.63ZM200.741 121.63H203.111V124H200.741V121.63ZM198.37 121.63H200.741V124H198.37V121.63ZM198.37 119.259H200.741V121.63H198.37V119.259ZM198.37 116.889H200.741V119.259H198.37V116.889ZM198.37 114.519H200.741V116.889H198.37V114.519ZM198.37 112.148H200.741V114.519H198.37V112.148ZM198.37 109.778H200.741V112.148H198.37V109.778ZM200.741 109.778H203.111V112.148H200.741V109.778ZM200.741 112.148H203.111V114.519H200.741V112.148ZM200.741 114.519H203.111V116.889H200.741V114.519ZM200.741 116.889H203.111V119.259H200.741V116.889ZM200.741 119.259H203.111V121.63H200.741V119.259ZM203.111 119.259H205.481V121.63H203.111V119.259ZM205.481 119.259H207.852V121.63H205.481V119.259ZM207.852 119.259H210.222V121.63H207.852V119.259ZM210.222 119.259H212.593V121.63H210.222V119.259ZM231.549 97.9259H233.919V100.296H231.549V97.9259ZM233.919 97.9259H236.289V100.296H233.919V97.9259ZM236.289 97.9259H238.66V100.296H236.289V97.9259ZM238.66 97.9259H241.03V100.296H238.66V97.9259ZM241.03 97.9259H243.4V100.296H241.03V97.9259ZM243.4 97.9259H245.771V100.296H243.4V97.9259ZM245.771 100.296H248.141V102.667H245.771V100.296ZM243.4 100.296H245.771V102.667H243.4V100.296ZM241.03 100.296H243.4V102.667H241.03V100.296ZM238.66 100.296H241.03V102.667H238.66V100.296ZM236.289 100.296H238.66V102.667H236.289V100.296ZM233.919 100.296H236.289V102.667H233.919V100.296ZM231.549 100.296H233.919V102.667H231.549V100.296ZM229.178 100.296H231.549V102.667H229.178V100.296ZM229.178 102.667H231.549V105.037H229.178V102.667ZM231.549 102.667H233.919V105.037H231.549V102.667ZM226.808 102.667H229.178V105.037H226.808V102.667ZM226.808 105.037H229.178V107.407H226.808V105.037ZM226.808 107.407H229.178V109.778H226.808V107.407ZM229.178 107.407H231.549V109.778H229.178V107.407ZM231.549 107.407H233.919V109.778H231.549V107.407ZM231.549 105.037H233.919V107.407H231.549V105.037ZM229.178 105.037H231.549V107.407H229.178V105.037ZM229.178 109.778H231.549V112.148H229.178V109.778ZM229.178 112.148H231.549V114.519H229.178V112.148ZM229.178 114.519H231.549V116.889H229.178V114.519ZM226.808 114.519H229.178V116.889H226.808V114.519ZM226.808 116.889H229.178V119.259H226.808V116.889ZM226.808 112.148H229.178V114.519H226.808V112.148ZM226.808 109.778H229.178V112.148H226.808V109.778ZM231.549 109.778H233.919V112.148H231.549V109.778ZM231.549 112.148H233.919V114.519H231.549V112.148ZM231.549 114.519H233.919V116.889H231.549V114.519ZM231.549 116.889H233.919V119.259H231.549V116.889ZM229.178 116.889H231.549V119.259H229.178V116.889ZM229.178 119.259H231.549V121.63H229.178V119.259ZM231.549 119.259H233.919V121.63H231.549V119.259ZM233.919 119.259H236.289V121.63H233.919V119.259ZM233.919 116.889H236.289V119.259H233.919V116.889ZM231.549 121.63H233.919V124H231.549V121.63ZM233.919 121.63H236.289V124H233.919V121.63ZM236.289 121.63H238.66V124H236.289V121.63ZM238.66 121.63H241.03V124H238.66V121.63ZM241.03 121.63H243.4V124H241.03V121.63ZM243.4 121.63H245.771V124H243.4V121.63ZM241.03 119.259H243.4V121.63H241.03V119.259ZM238.66 119.259H241.03V121.63H238.66V119.259ZM236.289 119.259H238.66V121.63H236.289V119.259ZM243.4 119.259H245.771V121.63H243.4V119.259ZM245.771 119.259H248.141V121.63H245.771V119.259ZM243.4 116.889H245.771V119.259H243.4V116.889ZM241.03 116.889H243.4V119.259H241.03V116.889ZM245.771 116.889H248.141V119.259H245.771V116.889ZM248.141 116.889H250.512V119.259H248.141V116.889ZM248.141 114.519H250.512V116.889H248.141V114.519ZM245.771 112.148H248.141V114.519H245.771V112.148ZM245.771 114.519H248.141V116.889H245.771V114.519ZM243.4 114.519H245.771V116.889H243.4V114.519ZM248.141 112.148H250.512V114.519H248.141V112.148ZM248.141 109.778H250.512V112.148H248.141V109.778ZM245.771 109.778H248.141V112.148H245.771V109.778ZM245.771 107.407H248.141V109.778H245.771V107.407ZM245.771 105.037H248.141V107.407H245.771V105.037ZM248.141 105.037H250.512V107.407H248.141V105.037ZM248.141 102.667H250.512V105.037H248.141V102.667ZM248.141 107.407H250.512V109.778H248.141V107.407ZM243.4 109.778H245.771V112.148H243.4V109.778ZM243.4 112.148H245.771V114.519H243.4V112.148ZM243.4 107.407H245.771V109.778H243.4V107.407ZM243.4 105.037H245.771V107.407H243.4V105.037ZM243.4 102.667H245.771V105.037H243.4V102.667ZM241.03 102.667H243.4V105.037H241.03V102.667ZM245.771 102.667H248.141V105.037H245.771V102.667ZM233.919 102.667H236.289V105.037H233.919V102.667ZM236.289 102.667H238.66V105.037H236.289V102.667ZM238.66 102.667H241.03V105.037H238.66V102.667ZM236.289 116.889H238.66V119.259H236.289V116.889ZM238.66 116.889H241.03V119.259H238.66V116.889ZM264.727 90.8148H267.097V93.1852H264.727V90.8148ZM264.727 93.1852H267.097V95.5556H264.727V93.1852ZM262.356 93.1852H264.727V95.5556H262.356V93.1852ZM264.727 95.5556H267.097V97.9259H264.727V95.5556ZM262.356 95.5556H264.727V97.9259H262.356V95.5556ZM259.986 95.5556H262.356V97.9259H259.986V95.5556ZM259.986 97.9259H262.356V100.296H259.986V97.9259ZM262.356 97.9259H264.727V100.296H262.356V97.9259ZM264.727 97.9259H267.097V100.296H264.727V97.9259ZM264.727 100.296H267.097V102.667H264.727V100.296ZM262.356 100.296H264.727V102.667H262.356V100.296ZM259.986 100.296H262.356V102.667H259.986V100.296ZM257.616 100.296H259.986V102.667H257.616V100.296ZM255.245 100.296H257.616V102.667H255.245V100.296ZM255.245 102.667H257.616V105.037H255.245V102.667ZM257.616 102.667H259.986V105.037H257.616V102.667ZM259.986 102.667H262.356V105.037H259.986V102.667ZM262.356 102.667H264.727V105.037H262.356V102.667ZM264.727 102.667H267.097V105.037H264.727V102.667ZM267.097 102.667H269.468V105.037H267.097V102.667ZM269.468 102.667H271.838V105.037H269.468V102.667ZM271.838 102.667H274.208V105.037H271.838V102.667ZM271.838 100.296H274.208V102.667H271.838V100.296ZM269.468 100.296H271.838V102.667H269.468V100.296ZM267.097 100.296H269.468V102.667H267.097V100.296ZM259.986 105.037H262.356V107.407H259.986V105.037ZM262.356 105.037H264.727V107.407H262.356V105.037ZM264.727 105.037H267.097V107.407H264.727V105.037ZM264.727 107.407H267.097V109.778H264.727V107.407ZM264.727 109.778H267.097V112.148H264.727V109.778ZM264.727 112.148H267.097V114.519H264.727V112.148ZM264.727 114.519H267.097V116.889H264.727V114.519ZM262.356 114.519H264.727V116.889H262.356V114.519ZM262.356 112.148H264.727V114.519H262.356V112.148ZM262.356 109.778H264.727V112.148H262.356V109.778ZM262.356 107.407H264.727V109.778H262.356V107.407ZM259.986 107.407H262.356V109.778H259.986V107.407ZM259.986 109.778H262.356V112.148H259.986V109.778ZM259.986 112.148H262.356V114.519H259.986V112.148ZM259.986 114.519H262.356V116.889H259.986V114.519ZM259.986 116.889H262.356V119.259H259.986V116.889ZM262.356 116.889H264.727V119.259H262.356V116.889ZM264.727 116.889H267.097V119.259H264.727V116.889ZM267.097 116.889H269.468V119.259H267.097V116.889ZM267.097 119.259H269.468V121.63H267.097V119.259ZM264.727 119.259H267.097V121.63H264.727V119.259ZM262.356 119.259H264.727V121.63H262.356V119.259ZM269.468 119.259H271.838V121.63H269.468V119.259ZM271.838 119.259H274.208V121.63H271.838V119.259ZM271.838 121.63H274.208V124H271.838V121.63ZM269.468 121.63H271.838V124H269.468V121.63ZM267.097 121.63H269.468V124H267.097V121.63ZM264.727 121.63H267.097V124H264.727V121.63Z" fill="black"/>
<path d="M283.674 88.4444H286.044V90.8148H283.674V88.4444ZM286.044 88.4444H288.414V90.8148H286.044V88.4444ZM288.414 88.4444H290.785V90.8148H288.414V88.4444ZM290.785 88.4444H293.155V90.8148H290.785V88.4444ZM293.155 88.4444H295.525V90.8148H293.155V88.4444ZM295.525 88.4444H297.896V90.8148H295.525V88.4444ZM295.525 90.8148H297.896V93.1852H295.525V90.8148ZM297.896 90.8148H300.266V93.1852H297.896V90.8148ZM293.155 90.8148H295.525V93.1852H293.155V90.8148ZM290.785 90.8148H293.155V93.1852H290.785V90.8148ZM288.414 90.8148H290.785V93.1852H288.414V90.8148ZM286.044 90.8148H288.414V93.1852H286.044V90.8148ZM283.674 90.8148H286.044V93.1852H283.674V90.8148ZM281.303 93.1852H283.674V95.5556H281.303V93.1852ZM281.303 90.8148H283.674V93.1852H281.303V90.8148ZM278.933 93.1852H281.303V95.5556H278.933V93.1852ZM283.674 93.1852H286.044V95.5556H283.674V93.1852ZM286.044 93.1852H288.414V95.5556H286.044V93.1852ZM288.414 93.1852H290.785V95.5556H288.414V93.1852ZM290.785 93.1852H293.155V95.5556H290.785V93.1852ZM293.155 93.1852H295.525V95.5556H293.155V93.1852ZM295.525 93.1852H297.896V95.5556H295.525V93.1852ZM297.896 93.1852H300.266V95.5556H297.896V93.1852ZM300.266 93.1852H302.637V95.5556H300.266V93.1852ZM300.266 95.5556H302.637V97.9259H300.266V95.5556ZM297.896 95.5556H300.266V97.9259H297.896V95.5556ZM295.525 95.5556H297.896V97.9259H295.525V95.5556ZM293.155 95.5556H295.525V97.9259H293.155V95.5556ZM295.525 97.9259H297.896V100.296H295.525V97.9259ZM300.266 97.9259H302.637V100.296H300.266V97.9259ZM297.896 97.9259H300.266V100.296H297.896V97.9259ZM300.266 112.148H302.637V114.519H300.266V112.148ZM300.266 114.519H302.637V116.889H300.266V114.519ZM300.266 116.889H302.637V119.259H300.266V116.889ZM297.896 116.889H300.266V119.259H297.896V116.889ZM297.896 114.519H300.266V116.889H297.896V114.519ZM297.896 112.148H300.266V114.519H297.896V112.148ZM295.525 112.148H297.896V114.519H295.525V112.148ZM295.525 114.519H297.896V116.889H295.525V114.519ZM293.155 114.519H295.525V116.889H293.155V114.519ZM295.525 116.889H297.896V119.259H295.525V116.889ZM297.896 119.259H300.266V121.63H297.896V119.259ZM295.525 119.259H297.896V121.63H295.525V119.259ZM293.155 116.889H295.525V119.259H293.155V116.889ZM293.155 119.259H295.525V121.63H293.155V119.259ZM295.525 121.63H297.896V124H295.525V121.63ZM293.155 121.63H295.525V124H293.155V121.63ZM290.785 121.63H293.155V124H290.785V121.63ZM288.414 121.63H290.785V124H288.414V121.63ZM286.044 121.63H288.414V124H286.044V121.63ZM283.674 121.63H286.044V124H283.674V121.63ZM283.674 119.259H286.044V121.63H283.674V119.259ZM286.044 119.259H288.414V121.63H286.044V119.259ZM286.044 116.889H288.414V119.259H286.044V116.889ZM288.414 116.889H290.785V119.259H288.414V116.889ZM290.785 116.889H293.155V119.259H290.785V116.889ZM290.785 119.259H293.155V121.63H290.785V119.259ZM288.414 119.259H290.785V121.63H288.414V119.259ZM281.303 119.259H283.674V121.63H281.303V119.259ZM283.674 116.889H286.044V119.259H283.674V116.889ZM286.044 114.519H288.414V116.889H286.044V114.519ZM283.674 114.519H286.044V116.889H283.674V114.519ZM281.303 114.519H283.674V116.889H281.303V114.519ZM281.303 116.889H283.674V119.259H281.303V116.889ZM278.933 116.889H281.303V119.259H278.933V116.889ZM278.933 114.519H281.303V116.889H278.933V114.519ZM278.933 112.148H281.303V114.519H278.933V112.148ZM278.933 109.778H281.303V112.148H278.933V109.778ZM278.933 107.407H281.303V109.778H278.933V107.407ZM278.933 105.037H281.303V107.407H278.933V105.037ZM278.933 102.667H281.303V105.037H278.933V102.667ZM278.933 100.296H281.303V102.667H278.933V100.296ZM278.933 97.9259H281.303V100.296H278.933V97.9259ZM278.933 95.5556H281.303V97.9259H278.933V95.5556ZM281.303 95.5556H283.674V97.9259H281.303V95.5556ZM283.674 95.5556H286.044V97.9259H283.674V95.5556ZM286.044 95.5556H288.414V97.9259H286.044V95.5556ZM283.674 97.9259H286.044V100.296H283.674V97.9259ZM283.674 100.296H286.044V102.667H283.674V100.296ZM283.674 102.667H286.044V105.037H283.674V102.667ZM283.674 105.037H286.044V107.407H283.674V105.037ZM283.674 107.407H286.044V109.778H283.674V107.407ZM283.674 109.778H286.044V112.148H283.674V109.778ZM283.674 112.148H286.044V114.519H283.674V112.148ZM281.303 112.148H283.674V114.519H281.303V112.148ZM281.303 109.778H283.674V112.148H281.303V109.778ZM281.303 107.407H283.674V109.778H281.303V107.407ZM281.303 105.037H283.674V107.407H281.303V105.037ZM281.303 102.667H283.674V105.037H281.303V102.667ZM281.303 100.296H283.674V102.667H281.303V100.296ZM281.303 97.9259H283.674V100.296H281.303V97.9259ZM307.37 88.4444H309.741V90.8148H307.37V88.4444ZM307.37 90.8148H309.741V93.1852H307.37V90.8148ZM307.37 93.1852H309.741V95.5556H307.37V93.1852ZM307.37 95.5556H309.741V97.9259H307.37V95.5556ZM307.37 97.9259H309.741V100.296H307.37V97.9259ZM307.37 100.296H309.741V102.667H307.37V100.296ZM307.37 102.667H309.741V105.037H307.37V102.667ZM307.37 105.037H309.741V107.407H307.37V105.037ZM307.37 107.407H309.741V109.778H307.37V107.407ZM307.37 109.778H309.741V112.148H307.37V109.778ZM307.37 112.148H309.741V114.519H307.37V112.148ZM307.37 114.519H309.741V116.889H307.37V114.519ZM307.37 116.889H309.741V119.259H307.37V116.889ZM307.37 119.259H309.741V121.63H307.37V119.259ZM307.37 121.63H309.741V124H307.37V121.63ZM309.741 121.63H312.111V124H309.741V121.63ZM312.111 121.63H314.481V124H312.111V121.63ZM312.111 119.259H314.481V121.63H312.111V119.259ZM312.111 116.889H314.481V119.259H312.111V116.889ZM312.111 114.519H314.481V116.889H312.111V114.519ZM312.111 112.148H314.481V114.519H312.111V112.148ZM312.111 109.778H314.481V112.148H312.111V109.778ZM312.111 107.407H314.481V109.778H312.111V107.407ZM312.111 105.037H314.481V107.407H312.111V105.037ZM312.111 102.667H314.481V105.037H312.111V102.667ZM312.111 88.4444H314.481V90.8148H312.111V88.4444ZM309.741 88.4444H312.111V90.8148H309.741V88.4444ZM309.741 90.8148H312.111V93.1852H309.741V90.8148ZM312.111 90.8148H314.481V93.1852H312.111V90.8148ZM312.111 93.1852H314.481V95.5556H312.111V93.1852ZM312.111 95.5556H314.481V97.9259H312.111V95.5556ZM312.111 97.9259H314.481V100.296H312.111V97.9259ZM312.111 100.296H314.481V102.667H312.111V100.296ZM309.741 97.9259H312.111V100.296H309.741V97.9259ZM309.741 95.5556H312.111V97.9259H309.741V95.5556ZM309.741 93.1852H312.111V95.5556H309.741V93.1852ZM309.741 100.296H312.111V102.667H309.741V100.296ZM309.741 102.667H312.111V105.037H309.741V102.667ZM309.741 119.259H312.111V121.63H309.741V119.259ZM309.741 116.889H312.111V119.259H309.741V116.889ZM309.741 114.519H312.111V116.889H309.741V114.519ZM309.741 112.148H312.111V114.519H309.741V112.148ZM309.741 109.778H312.111V112.148H309.741V109.778ZM309.741 107.407H312.111V109.778H309.741V107.407ZM309.741 105.037H312.111V107.407H309.741V105.037ZM319.245 88.4444H321.616V90.8148H319.245V88.4444ZM319.245 90.8148H321.616V93.1852H319.245V90.8148ZM319.245 93.1852H321.616V95.5556H319.245V93.1852ZM319.245 100.296H321.616V102.667H319.245V100.296ZM319.245 102.667H321.616V105.037H319.245V102.667ZM319.245 105.037H321.616V107.407H319.245V105.037ZM319.245 107.407H321.616V109.778H319.245V107.407ZM319.245 109.778H321.616V112.148H319.245V109.778ZM319.245 112.148H321.616V114.519H319.245V112.148ZM319.245 114.519H321.616V116.889H319.245V114.519ZM319.245 116.889H321.616V119.259H319.245V116.889ZM319.245 119.259H321.616V121.63H319.245V119.259ZM319.245 121.63H321.616V124H319.245V121.63ZM321.616 121.63H323.986V124H321.616V121.63ZM323.986 121.63H326.356V124H323.986V121.63ZM323.986 119.259H326.356V121.63H323.986V119.259ZM323.986 116.889H326.356V119.259H323.986V116.889ZM323.986 114.519H326.356V116.889H323.986V114.519ZM323.986 112.148H326.356V114.519H323.986V112.148ZM323.986 109.778H326.356V112.148H323.986V109.778ZM323.986 107.407H326.356V109.778H323.986V107.407ZM323.986 105.037H326.356V107.407H323.986V105.037ZM323.986 102.667H326.356V105.037H323.986V102.667ZM323.986 88.4444H326.356V90.8148H323.986V88.4444ZM321.616 88.4444H323.986V90.8148H321.616V88.4444ZM321.616 90.8148H323.986V93.1852H321.616V90.8148ZM323.986 90.8148H326.356V93.1852H323.986V90.8148ZM323.986 93.1852H326.356V95.5556H323.986V93.1852ZM323.986 100.296H326.356V102.667H323.986V100.296ZM321.616 93.1852H323.986V95.5556H321.616V93.1852ZM321.616 100.296H323.986V102.667H321.616V100.296ZM321.616 102.667H323.986V105.037H321.616V102.667ZM321.616 119.259H323.986V121.63H321.616V119.259ZM321.616 116.889H323.986V119.259H321.616V116.889ZM321.616 114.519H323.986V116.889H321.616V114.519ZM321.616 112.148H323.986V114.519H321.616V112.148ZM321.616 109.778H323.986V112.148H321.616V109.778ZM321.616 107.407H323.986V109.778H321.616V107.407ZM321.616 105.037H323.986V107.407H321.616V105.037ZM335.861 97.9259H338.231V100.296H335.861V97.9259ZM338.231 97.9259H340.602V100.296H338.231V97.9259ZM340.602 97.9259H342.972V100.296H340.602V97.9259ZM342.972 97.9259H345.343V100.296H342.972V97.9259ZM345.343 97.9259H347.713V100.296H345.343V97.9259ZM347.713 97.9259H350.083V100.296H347.713V97.9259ZM350.083 100.296H352.454V102.667H350.083V100.296ZM347.713 100.296H350.083V102.667H347.713V100.296ZM345.343 100.296H347.713V102.667H345.343V100.296ZM342.972 100.296H345.343V102.667H342.972V100.296ZM340.602 100.296H342.972V102.667H340.602V100.296ZM338.231 100.296H340.602V102.667H338.231V100.296ZM335.861 100.296H338.231V102.667H335.861V100.296ZM333.491 100.296H335.861V102.667H333.491V100.296ZM333.491 102.667H335.861V105.037H333.491V102.667ZM335.861 102.667H338.231V105.037H335.861V102.667ZM331.12 102.667H333.491V105.037H331.12V102.667ZM331.12 105.037H333.491V107.407H331.12V105.037ZM331.12 107.407H333.491V109.778H331.12V107.407ZM333.491 107.407H335.861V109.778H333.491V107.407ZM335.861 107.407H338.231V109.778H335.861V107.407ZM335.861 105.037H338.231V107.407H335.861V105.037ZM333.491 105.037H335.861V107.407H333.491V105.037ZM333.491 109.778H335.861V112.148H333.491V109.778ZM333.491 112.148H335.861V114.519H333.491V112.148ZM333.491 114.519H335.861V116.889H333.491V114.519ZM331.12 114.519H333.491V116.889H331.12V114.519ZM331.12 116.889H333.491V119.259H331.12V116.889ZM331.12 112.148H333.491V114.519H331.12V112.148ZM331.12 109.778H333.491V112.148H331.12V109.778ZM335.861 109.778H338.231V112.148H335.861V109.778ZM335.861 112.148H338.231V114.519H335.861V112.148ZM335.861 114.519H338.231V116.889H335.861V114.519ZM335.861 116.889H338.231V119.259H335.861V116.889ZM333.491 116.889H335.861V119.259H333.491V116.889ZM333.491 119.259H335.861V121.63H333.491V119.259ZM335.861 119.259H338.231V121.63H335.861V119.259ZM338.231 119.259H340.602V121.63H338.231V119.259ZM338.231 116.889H340.602V119.259H338.231V116.889ZM335.861 121.63H338.231V124H335.861V121.63ZM338.231 121.63H340.602V124H338.231V121.63ZM340.602 121.63H342.972V124H340.602V121.63ZM342.972 121.63H345.343V124H342.972V121.63ZM345.343 121.63H347.713V124H345.343V121.63ZM347.713 121.63H350.083V124H347.713V121.63ZM345.343 119.259H347.713V121.63H345.343V119.259ZM342.972 119.259H345.343V121.63H342.972V119.259ZM340.602 119.259H342.972V121.63H340.602V119.259ZM347.713 119.259H350.083V121.63H347.713V119.259ZM350.083 119.259H352.454V121.63H350.083V119.259ZM347.713 116.889H350.083V119.259H347.713V116.889ZM345.343 116.889H347.713V119.259H345.343V116.889ZM350.083 116.889H352.454V119.259H350.083V116.889ZM352.454 116.889H354.824V119.259H352.454V116.889ZM352.454 114.519H354.824V116.889H352.454V114.519ZM350.083 114.519H352.454V116.889H350.083V114.519ZM347.713 114.519H350.083V116.889H347.713V114.519ZM350.083 105.037H352.454V107.407H350.083V105.037ZM352.454 105.037H354.824V107.407H352.454V105.037ZM352.454 102.667H354.824V105.037H352.454V102.667ZM347.713 105.037H350.083V107.407H347.713V105.037ZM347.713 102.667H350.083V105.037H347.713V102.667ZM345.343 102.667H347.713V105.037H345.343V102.667ZM350.083 102.667H352.454V105.037H350.083V102.667ZM338.231 102.667H340.602V105.037H338.231V102.667ZM340.602 102.667H342.972V105.037H340.602V102.667ZM342.972 102.667H345.343V105.037H342.972V102.667ZM340.602 116.889H342.972V119.259H340.602V116.889ZM342.972 116.889H345.343V119.259H342.972V116.889ZM359.558 88.4444H361.928V90.8148H359.558V88.4444ZM361.928 88.4444H364.299V90.8148H361.928V88.4444ZM364.299 90.8148H366.669V93.1852H364.299V90.8148ZM364.299 93.1852H366.669V95.5556H364.299V93.1852ZM364.299 95.5556H366.669V97.9259H364.299V95.5556ZM364.299 97.9259H366.669V100.296H364.299V97.9259ZM364.299 100.296H366.669V102.667H364.299V100.296ZM364.299 102.667H366.669V105.037H364.299V102.667ZM361.928 105.037H364.299V107.407H361.928V105.037ZM361.928 107.407H364.299V109.778H361.928V107.407ZM361.928 102.667H364.299V105.037H361.928V102.667ZM361.928 100.296H364.299V102.667H361.928V100.296ZM364.299 88.4444H366.669V90.8148H364.299V88.4444ZM361.928 90.8148H364.299V93.1852H361.928V90.8148ZM361.928 93.1852H364.299V95.5556H361.928V93.1852ZM359.558 93.1852H361.928V95.5556H359.558V93.1852ZM359.558 95.5556H361.928V97.9259H359.558V95.5556ZM359.558 97.9259H361.928V100.296H359.558V97.9259ZM361.928 97.9259H364.299V100.296H361.928V97.9259ZM361.928 95.5556H364.299V97.9259H361.928V95.5556ZM359.558 90.8148H361.928V93.1852H359.558V90.8148ZM359.558 100.296H361.928V102.667H359.558V100.296ZM359.558 102.667H361.928V105.037H359.558V102.667ZM359.558 105.037H361.928V107.407H359.558V105.037ZM359.558 107.407H361.928V109.778H359.558V107.407ZM359.558 109.778H361.928V112.148H359.558V109.778ZM359.558 112.148H361.928V114.519H359.558V112.148ZM359.558 114.519H361.928V116.889H359.558V114.519ZM359.558 116.889H361.928V119.259H359.558V116.889ZM359.558 119.259H361.928V121.63H359.558V119.259ZM359.558 121.63H361.928V124H359.558V121.63ZM361.928 121.63H364.299V124H361.928V121.63ZM364.299 121.63H366.669V124H364.299V121.63ZM364.299 119.259H366.669V121.63H364.299V119.259ZM364.299 116.889H366.669V119.259H364.299V116.889ZM364.299 114.519H366.669V116.889H364.299V114.519ZM364.299 112.148H366.669V114.519H364.299V112.148ZM364.299 109.778H366.669V112.148H364.299V109.778ZM364.299 107.407H366.669V109.778H364.299V107.407ZM364.299 105.037H366.669V107.407H364.299V105.037ZM361.928 109.778H364.299V112.148H361.928V109.778ZM361.928 112.148H364.299V114.519H361.928V112.148ZM361.928 119.259H364.299V121.63H361.928V119.259ZM361.928 116.889H364.299V119.259H361.928V116.889ZM361.928 114.519H364.299V116.889H361.928V114.519ZM366.669 109.778H369.039V112.148H366.669V109.778ZM369.039 109.778H371.41V112.148H369.039V109.778ZM369.039 107.407H371.41V109.778H369.039V107.407ZM366.669 107.407H369.039V109.778H366.669V107.407ZM366.669 112.148H369.039V114.519H366.669V112.148ZM369.039 112.148H371.41V114.519H369.039V112.148ZM371.41 109.778H373.78V112.148H371.41V109.778ZM371.41 107.407H373.78V109.778H371.41V107.407ZM369.039 105.037H371.41V107.407H369.039V105.037ZM371.41 105.037H373.78V107.407H371.41V105.037ZM373.78 107.407H376.15V109.778H373.78V107.407ZM373.78 105.037H376.15V107.407H373.78V105.037ZM373.78 102.667H376.15V105.037H373.78V102.667ZM376.15 102.667H378.521V105.037H376.15V102.667ZM376.15 100.296H378.521V102.667H376.15V100.296ZM373.78 100.296H376.15V102.667H373.78V100.296ZM373.78 97.9259H376.15V100.296H373.78V97.9259ZM371.41 97.9259H373.78V100.296H371.41V97.9259ZM371.41 100.296H373.78V102.667H371.41V100.296ZM371.41 102.667H373.78V105.037H371.41V102.667ZM376.15 97.9259H378.521V100.296H376.15V97.9259ZM376.15 105.037H378.521V107.407H376.15V105.037ZM373.78 112.148H376.15V114.519H373.78V112.148ZM371.41 112.148H373.78V114.519H371.41V112.148ZM369.039 114.519H371.41V116.889H369.039V114.519ZM371.41 114.519H373.78V116.889H371.41V114.519ZM373.78 114.519H376.15V116.889H373.78V114.519ZM376.15 114.519H378.521V116.889H376.15V114.519ZM376.15 116.889H378.521V119.259H376.15V116.889ZM376.15 119.259H378.521V121.63H376.15V119.259ZM376.15 121.63H378.521V124H376.15V121.63ZM373.78 121.63H376.15V124H373.78V121.63ZM373.78 119.259H376.15V121.63H373.78V119.259ZM373.78 116.889H376.15V119.259H373.78V116.889ZM371.41 119.259H373.78V121.63H371.41V119.259ZM371.41 121.63H373.78V124H371.41V121.63ZM371.41 116.889H373.78V119.259H371.41V116.889Z" fill="#21DA5F"/>
</svg>
