<?xml version="1.0" encoding="UTF-8"?>
<!DOCTYPE svg PUBLIC "-//W3C//DTD SVG 1.1//EN" "http://www.w3.org/Graphics/SVG/1.1/DTD/svg11.dtd">
<svg xmlns="http://www.w3.org/2000/svg" version="1.1" width="60px" height="60px" style="shape-rendering:geometricPrecision; text-rendering:geometricPrecision; image-rendering:optimizeQuality; fill-rule:evenodd; clip-rule:evenodd" xmlns:xlink="http://www.w3.org/1999/xlink">
<g><path style="opacity:0.935" fill="#21DA5F" d="M 22.5,5.5 C 37.367,3.01154 47.5337,8.6782 53,22.5C 55.9816,37.3761 50.4816,47.5428 36.5,53C 21.6239,55.9816 11.4572,50.4816 6,36.5C 3.14645,21.5328 8.64645,11.1994 22.5,5.5 Z M 28.5,16.5 C 32.4154,18.7433 35.7488,21.7433 38.5,25.5C 38.2907,26.086 37.9574,26.586 37.5,27C 35.5273,27.4955 33.5273,27.6621 31.5,27.5C 31.6658,32.1785 31.4992,36.8452 31,41.5C 30,42.8333 29,42.8333 28,41.5C 27.5008,36.8452 27.3342,32.1785 27.5,27.5C 25.4727,27.6621 23.4727,27.4955 21.5,27C 21.0426,26.586 20.7093,26.086 20.5,25.5C 23.189,22.4802 25.8556,19.4802 28.5,16.5 Z"/></g>
</svg>
