<?xml version="1.0" encoding="UTF-8"?>
<!DOCTYPE svg PUBLIC "-//W3C//DTD SVG 1.1//EN" "http://www.w3.org/Graphics/SVG/1.1/DTD/svg11.dtd">
<svg xmlns="http://www.w3.org/2000/svg" version="1.1" width="100px" height="100px" style="shape-rendering:geometricPrecision; text-rendering:geometricPrecision; image-rendering:optimizeQuality; fill-rule:evenodd; clip-rule:evenodd" xmlns:xlink="http://www.w3.org/1999/xlink">
<g><path style="opacity:0.956" fill="#21DA5F" d="M 42.5,7.5 C 67.6271,6.13621 83.7938,17.4695 91,41.5C 93.4646,59.7311 87.2979,74.2311 72.5,85C 49.5303,96.6736 30.0303,92.5069 14,72.5C 2.13664,49.4646 6.30331,29.9646 26.5,14C 31.6069,10.9354 36.9402,8.76876 42.5,7.5 Z M 47.5,29.5 C 48.8734,29.3433 50.2068,29.51 51.5,30C 57.0841,35.0787 62.0841,40.5787 66.5,46.5C 66.2718,48.3969 65.2718,49.7303 63.5,50.5C 59.894,48.3972 56.7273,45.7306 54,42.5C 53.6667,50.5 53.3333,58.5 53,66.5C 50.6667,70.5 48.3333,70.5 46,66.5C 45.6667,58.5 45.3333,50.5 45,42.5C 42.2727,45.7306 39.106,48.3972 35.5,50.5C 33.7282,49.7303 32.7282,48.3969 32.5,46.5C 37.1199,40.5437 42.1199,34.8771 47.5,29.5 Z"/></g>
</svg>
